{"title":"The Debt 2010 720p Esub BluRay Dual Audio English Hindi GOPISAHI","magnet":"magnet:?xt=urn:btih:8b70dcb519ccaebb95d8db6edd1f34c12206c5ab&dn=The+Debt+2010+720p+Esub+BluRay+Dual+Audio+English+Hindi+GOPISAHI&tr=udp%3A%2F%2Ftracker.leechers-paradise.org%3A6969&tr=udp%3A%2F%2Fzer0day.ch%3A1337&tr=udp%3A%2F%2Fopen.demonii.com%3A1337&tr=udp%3A%2F%2Ftracker.coppersurfer.tk%3A6969&tr=udp%3A%2F%2Fexodus.desync.com%3A6969","uploader":"jatt13","categoryP":"video","categoryS":"hd___movies","size":"778618973","seeders":"3","leechers":"251","description":"[center][img]http://i.imgur.com/YSdKjPt.jpg[/img]\r\nGeneral\r\nComplete name                  : F:DUB2010The Debt 2010 720p Esub BluRay Dual Audio English Hindi GOPISAHI\r\nFormat                         : Matroska\r\nFormat version                 : Version 4 / Version 2\r\nFile size                      : 743 MiB\r\nDuration                       : 1 h 43 min\r\nOverall bit rate               : 1 002 kb/s\r\nMovie name                     : The Debt 2010 \r\nEncoded date                   : UTC 2017-08-27 03:48:12\r\n\r\nVideo\r\nFormat                         : AVC\r\nDuration                       : 1 h 43 min\r\nBit rate                       : 875 kb/s\r\nNominal bit rate               : 823 kb/s\r\nWidth                          : 1 280 pixels\r\nHeight                         : 536 pixels\r\nDisplay aspect ratio           : 2.40:1\r\nFrame rate mode                : Constant\r\nFrame rate                     : 25.000 FPS\r\nOriginal frame rate            : 23.976 (24000/1001) FPS\r\nStream size                    : 648 MiB (87%)\r\nWriting library                : x264 core \r\n\r\nAudio #1\r\nID                             : 2\r\nFormat                         : AAC\r\nDuration                       : 1 h 43 min\r\nBit rate                       : 87.4 kb/s\r\nChannel(s)                     : 6 channels\r\nChannel positions              : Front: L C R, Side: L R, LFE\r\nSampling rate                  : 44.1 kHz\r\nFrame rate                     : 43.066 FPS (1024 SPF)\r\nStream size                    : 64.8 MiB (9%)\r\nTitle                          : GOPISAHI\r\n\r\nAudio #2\r\nFormat                         : AAC\r\nDuration                       : 1 h 43 min\r\nBit rate                       : 37.5 kb/s\r\nChannel(s)                     : 2 channels\r\nChannel positions              : Front: L R\r\nSampling rate                  : 48.0 kHz / 24.0 kHz\r\nFrame rate                     : 23.438 FPS (1024 SPF)\r\nStream size                    : 27.8 MiB (4%)\r\nLanguage                       : English\r\n\r\nText\r\nLanguage                       : English\r\n[img]http://i.imgur.com/LaU1cIf.jpg[/img]\r\n[img]http://i.imgur.com/AFl44Ag.jpg[/img]\r\n[img]http://i.imgur.com/PpRDSwX.jpg[/img]\r\n[img]http://i.imgur.com/qyG3eG9.jpg[/img][/center]","last_updated":"2017-08-27T12:12:41.206Z","parsed":{"xt":"urn:btih:8b70dcb519ccaebb95d8db6edd1f34c12206c5ab","dn":"The Debt 2010 720p Esub BluRay Dual Audio English Hindi GOPISAHI","tr":["udp://exodus.desync.com:6969","udp://open.demonii.com:1337","udp://tracker.coppersurfer.tk:6969","udp://tracker.leechers-paradise.org:6969","udp://zer0day.ch:1337"],"infoHash":"8b70dcb519ccaebb95d8db6edd1f34c12206c5ab","infoHashBuffer":{"type":"Buffer","data":[139,112,220,181,25,204,174,187,149,216,219,110,221,31,52,193,34,6,197,171]},"name":"The Debt 2010 720p Esub BluRay Dual Audio English Hindi GOPISAHI","announce":["udp://exodus.desync.com:6969","udp://open.demonii.com:1337","udp://tracker.coppersurfer.tk:6969","udp://tracker.leechers-paradise.org:6969","udp://zer0day.ch:1337"],"urlList":[]}}